<svg width="17" height="27" viewBox="0 0 17 27" fill="none" xmlns="http://www.w3.org/2000/svg">
<path d="M13.5625 1.6875C14.0101 1.6875 14.4393 1.86529 14.7557 2.18176C15.0722 2.49822 15.25 2.92745 15.25 3.375V23.625C15.25 24.0726 15.0722 24.5018 14.7557 24.8182C14.4393 25.1347 14.0101 25.3125 13.5625 25.3125H3.4375C2.98995 25.3125 2.56073 25.1347 2.24426 24.8182C1.92779 24.5018 1.75 24.0726 1.75 23.625V3.375C1.75 2.92745 1.92779 2.49822 2.24426 2.18176C2.56073 1.86529 2.98995 1.6875 3.4375 1.6875H13.5625ZM3.4375 0C2.54239 0 1.68395 0.355579 1.05101 0.988515C0.418079 1.62145 0.0625 2.47989 0.0625 3.375V23.625C0.0625 24.5201 0.418079 25.3785 1.05101 26.0115C1.68395 26.6444 2.54239 27 3.4375 27H13.5625C14.4576 27 15.316 26.6444 15.949 26.0115C16.5819 25.3785 16.9375 24.5201 16.9375 23.625V3.375C16.9375 2.47989 16.5819 1.62145 15.949 0.988515C15.316 0.355579 14.4576 0 13.5625 0L3.4375 0Z" fill="#0038FF"/>
<path d="M8.5 23.625C8.94755 23.625 9.37677 23.4472 9.69324 23.1307C10.0097 22.8143 10.1875 22.3851 10.1875 21.9375C10.1875 21.4899 10.0097 21.0607 9.69324 20.7443C9.37677 20.4278 8.94755 20.25 8.5 20.25C8.05245 20.25 7.62323 20.4278 7.30676 20.7443C6.99029 21.0607 6.8125 21.4899 6.8125 21.9375C6.8125 22.3851 6.99029 22.8143 7.30676 23.1307C7.62323 23.4472 8.05245 23.625 8.5 23.625Z" fill="#0038FF"/>
</svg>
