<svg width="50" height="45" viewBox="0 0 50 45" fill="none" xmlns="http://www.w3.org/2000/svg">
<g clip-path="url(#clip0_205_1110)">
<path d="M49.2661 13.3167L43.0161 7.69175C42.8522 7.54426 42.6434 7.44382 42.4161 7.40312C42.1888 7.36243 41.9531 7.38332 41.739 7.46314C41.5249 7.54297 41.3419 7.67814 41.2131 7.85157C41.0843 8.02501 41.0156 8.22891 41.0156 8.4375V10.1953H38.6718V4.21875C38.6706 3.19346 38.2175 2.21049 37.4119 1.48549C36.6064 0.760503 35.5142 0.352702 34.375 0.351562H15.625C14.4857 0.352702 13.3935 0.760503 12.588 1.48549C11.7825 2.21049 11.3293 3.19346 11.3281 4.21875V27.0703H8.98432V25.3125C8.98431 25.1039 8.91558 24.9 8.78681 24.7266C8.65804 24.5531 8.47502 24.418 8.2609 24.3381C8.04677 24.2583 7.81116 24.2374 7.58384 24.2781C7.35653 24.3188 7.14772 24.4193 6.98383 24.5667L0.733832 30.1917C0.514079 30.3895 0.390625 30.6578 0.390625 30.9375C0.390625 31.2172 0.514079 31.4855 0.733832 31.6833L6.98383 37.3083C7.67973 37.9752 9.01704 37.473 8.98432 36.5625V34.8047H11.3281V40.7812C11.3293 41.8065 11.7825 42.7895 12.588 43.5145C13.3935 44.2395 14.4857 44.6473 15.625 44.6484H34.375C35.5142 44.6473 36.6064 44.2395 37.4119 43.5145C38.2175 42.7895 38.6706 41.8065 38.6718 40.7812V17.9297H41.0156V19.6875C40.983 20.5983 42.3202 21.1 43.0161 20.4333L49.2661 14.8083C49.4858 14.6105 49.6093 14.3422 49.6093 14.0625C49.6093 13.7828 49.4858 13.5145 49.2661 13.3167V13.3167ZM15.625 2.46094H34.375C34.8928 2.46147 35.3892 2.64684 35.7554 2.97638C36.1215 3.30592 36.3275 3.75271 36.3281 4.21875V5.97656H13.6718V4.21875C13.6724 3.75271 13.8784 3.30592 14.2445 2.97638C14.6107 2.64684 15.1071 2.46147 15.625 2.46094V2.46094ZM34.375 42.5391H15.625C15.1071 42.5385 14.6107 42.3532 14.2445 42.0236C13.8784 41.6941 13.6724 41.2473 13.6718 40.7812V39.0234H36.3281V40.7812C36.3275 41.2473 36.1215 41.6941 35.7554 42.0236C35.3892 42.3532 34.8928 42.5385 34.375 42.5391V42.5391ZM43.3593 17.1412V16.875C43.3593 16.5953 43.2359 16.327 43.0161 16.1292C42.7963 15.9314 42.4983 15.8203 42.1875 15.8203H32.8125C32.5017 15.8203 32.2036 15.9314 31.9838 16.1292C31.764 16.327 31.6406 16.5953 31.6406 16.875C31.6406 17.1547 31.764 17.423 31.9838 17.6208C32.2036 17.8186 32.5017 17.9297 32.8125 17.9297H36.3281V36.9141H13.6718V34.8047H17.1875C17.4983 34.8047 17.7963 34.6936 18.0161 34.4958C18.2359 34.298 18.3593 34.0297 18.3593 33.75C18.3593 33.4703 18.2359 33.202 18.0161 33.0042C17.7963 32.8064 17.4983 32.6953 17.1875 32.6953H7.81245C7.50165 32.6953 7.20358 32.8064 6.98381 33.0042C6.76404 33.202 6.64057 33.4703 6.64057 33.75V34.0162L3.21977 30.9375L6.64057 27.8588V28.125C6.64057 28.4047 6.76404 28.673 6.98381 28.8708C7.20358 29.0686 7.50165 29.1797 7.81245 29.1797H17.1875C17.4983 29.1797 17.7963 29.0686 18.0161 28.8708C18.2359 28.673 18.3593 28.4047 18.3593 28.125C18.3593 27.8453 18.2359 27.577 18.0161 27.3792C17.7963 27.1814 17.4983 27.0703 17.1875 27.0703H13.6718V8.08594H36.3281V10.1953H32.8125C32.5017 10.1953 32.2036 10.3064 31.9838 10.5042C31.764 10.702 31.6406 10.9703 31.6406 11.25C31.6406 11.5297 31.764 11.798 31.9838 11.9958C32.2036 12.1936 32.5017 12.3047 32.8125 12.3047H42.1875C42.4983 12.3047 42.7963 12.1936 43.0161 11.9958C43.2359 11.798 43.3593 11.5297 43.3593 11.25V10.9838L46.7801 14.0625L43.3593 17.1412Z" fill="#FF0000"/>
</g>
<defs>
<clipPath id="clip0_205_1110">
<rect width="50" height="45" fill="white"/>
</clipPath>
</defs>
</svg>
