<svg width="22" height="24" viewBox="0 0 22 24" fill="none" xmlns="http://www.w3.org/2000/svg">
<path d="M11.0001 3.05981C10.7649 3.23861 7.53976 5.63809 3.40355 6.4663C2.85828 16.011 10.995 20.9526 11.0001 20.9498C11.0053 20.9526 19.142 16.0111 18.5967 6.46604C14.4603 5.63809 11.0001 3.05981 11.0001 3.05981Z" fill="#01A4FF"/>
<path d="M21.286 4.92844C21.2695 4.63858 21.0591 4.39652 20.7743 4.33927C15.7303 3.32964 11.4238 0.158237 11.3813 0.126575C11.1535 -0.0432128 10.8407 -0.0418472 10.6142 0.130622C10.4444 0.259796 6.39685 3.3046 1.22603 4.33957C0.941126 4.39657 0.730826 4.63889 0.714135 4.9288C0.299806 12.1817 3.7028 17.3993 6.63067 20.4988C7.72941 21.6623 8.76043 22.5224 9.43195 23.0388C9.81719 23.335 10.1283 23.5525 10.3213 23.6828C10.6818 23.9266 10.7855 23.9964 10.9844 24C10.9927 24.0003 11.0009 24.0003 11.0087 24.0003C11.205 24.0003 11.3234 23.9212 11.6356 23.7119C11.8047 23.5984 12.0786 23.4095 12.4197 23.1513C13.0142 22.7026 13.9333 21.9556 14.9374 20.9446C16.824 19.0455 18.326 16.9308 19.4009 14.6597C20.8463 11.6068 21.4806 8.33275 21.286 4.92844ZM15.6986 18.1767C13.7618 20.6055 11.7601 22.085 11.0001 22.6017C10.2404 22.085 8.23867 20.6058 6.30106 18.1755C3.27016 14.3739 1.81288 10.1071 1.96592 5.48601C6.33166 4.50005 9.86312 2.21942 11.0035 1.42217C12.1592 2.21825 15.7515 4.51386 20.0343 5.48565C20.1874 10.1073 18.7302 14.3748 15.6986 18.1767Z" fill="#01A4FF"/>
</svg>
