<svg width="27" height="19" viewBox="0 0 27 19" fill="none" xmlns="http://www.w3.org/2000/svg">
<path d="M25.4776 8.94002C24.3591 3.88332 22.6758 1.18438 20.1788 0.447151C19.654 0.293192 19.1095 0.216276 18.5625 0.218811C17.8395 0.218811 17.2099 0.394943 16.5438 0.581623C15.7412 0.806799 14.8295 1.06256 13.5 1.06256C12.1706 1.06256 11.2583 0.807326 10.4541 0.58215C9.78752 0.394943 9.1584 0.218811 8.43752 0.218811C7.8719 0.216849 7.30876 0.293521 6.76426 0.446623C4.28047 1.18069 2.59824 3.87858 1.4634 8.93686C0.243122 14.3801 0.843767 17.8168 3.14773 18.6141C3.46355 18.7255 3.79584 18.7829 4.1307 18.7839C5.70904 18.7839 6.97467 17.4693 7.83951 16.393C8.81668 15.1748 9.96049 14.5568 13.5 14.5568C16.6614 14.5568 17.9698 14.9855 19.0999 16.393C19.8102 17.2779 20.4815 17.897 21.1512 18.2867C22.0419 18.8045 22.9321 18.9195 23.7964 18.6226C25.158 18.158 25.9385 16.9298 26.1167 14.9713C26.2522 13.4694 26.0434 11.4966 25.4776 8.94002ZM10.9688 8.65631H9.28127V10.3438C9.28127 10.5676 9.19237 10.7822 9.03414 10.9404C8.8759 11.0987 8.66129 11.1876 8.43752 11.1876C8.21374 11.1876 7.99913 11.0987 7.8409 10.9404C7.68266 10.7822 7.59377 10.5676 7.59377 10.3438V8.65631H5.90627C5.68249 8.65631 5.46788 8.56742 5.30965 8.40918C5.15141 8.25095 5.06252 8.03634 5.06252 7.81256C5.06252 7.58878 5.15141 7.37417 5.30965 7.21594C5.46788 7.05771 5.68249 6.96881 5.90627 6.96881H7.59377V5.28131C7.59377 5.05753 7.68266 4.84292 7.8409 4.68469C7.99913 4.52646 8.21374 4.43756 8.43752 4.43756C8.66129 4.43756 8.8759 4.52646 9.03414 4.68469C9.19237 4.84292 9.28127 5.05753 9.28127 5.28131V6.96881H10.9688C11.1925 6.96881 11.4072 7.05771 11.5654 7.21594C11.7236 7.37417 11.8125 7.58878 11.8125 7.81256C11.8125 8.03634 11.7236 8.25095 11.5654 8.40918C11.4072 8.56742 11.1925 8.65631 10.9688 8.65631ZM15.3985 8.86725C15.1899 8.86725 14.9859 8.80539 14.8125 8.6895C14.6391 8.57361 14.5039 8.40889 14.4241 8.21617C14.3442 8.02345 14.3233 7.81139 14.364 7.6068C14.4047 7.40221 14.5052 7.21428 14.6527 7.06678C14.8002 6.91928 14.9881 6.81883 15.1927 6.77814C15.3973 6.73744 15.6093 6.75833 15.8021 6.83816C15.9948 6.91798 16.1595 7.05316 16.2754 7.22661C16.3913 7.40005 16.4531 7.60396 16.4531 7.81256C16.4531 8.09228 16.342 8.36054 16.1442 8.55834C15.9464 8.75613 15.6782 8.86725 15.3985 8.86725V8.86725ZM17.7188 11.1876C17.5101 11.1876 17.306 11.1256 17.1325 11.0096C16.959 10.8936 16.8239 10.7287 16.7441 10.5359C16.6644 10.343 16.6436 10.1308 16.6845 9.92614C16.7255 9.72148 16.8262 9.53356 16.9739 9.38616C17.1217 9.23877 17.3099 9.13853 17.5146 9.09813C17.7194 9.05773 17.9315 9.079 18.1242 9.15923C18.3169 9.23946 18.4814 9.37505 18.597 9.54884C18.7126 9.72263 18.774 9.9268 18.7735 10.1355C18.7728 10.4148 18.6613 10.6824 18.4636 10.8796C18.2659 11.0768 17.998 11.1876 17.7188 11.1876V11.1876ZM17.7188 6.54694C17.5102 6.54694 17.3063 6.48508 17.1328 6.36919C16.9594 6.2533 16.8242 6.08858 16.7444 5.89586C16.6645 5.70314 16.6437 5.49108 16.6843 5.28649C16.725 5.0819 16.8255 4.89397 16.973 4.74647C17.1205 4.59897 17.3084 4.49852 17.513 4.45783C17.7176 4.41713 17.9297 4.43802 18.1224 4.51784C18.3151 4.59767 18.4798 4.73285 18.5957 4.9063C18.7116 5.07974 18.7735 5.28365 18.7735 5.49225C18.7735 5.77197 18.6623 6.04023 18.4645 6.23802C18.2668 6.43582 17.9985 6.54694 17.7188 6.54694ZM20.0391 8.86725C19.8305 8.86725 19.6266 8.80539 19.4531 8.6895C19.2797 8.57361 19.1445 8.40889 19.0647 8.21617C18.9848 8.02345 18.964 7.81139 19.0047 7.6068C19.0454 7.40221 19.1458 7.21428 19.2933 7.06678C19.4408 6.91928 19.6287 6.81883 19.8333 6.77814C20.0379 6.73744 20.25 6.75833 20.4427 6.83816C20.6354 6.91798 20.8001 7.05316 20.916 7.22661C21.0319 7.40005 21.0938 7.60396 21.0938 7.81256C21.0938 8.09228 20.9826 8.36054 20.7849 8.55834C20.5871 8.75613 20.3188 8.86725 20.0391 8.86725V8.86725Z" fill="#0050C8"/>
</svg>
