<svg width="23" height="21" viewBox="0 0 23 21" fill="none" xmlns="http://www.w3.org/2000/svg">
<path d="M12.3438 1.43251C13.4688 0.622505 14.7738 0.217505 16.2475 0.217505C17.0575 0.217505 17.9463 0.431255 18.9138 0.881255C19.8813 1.32 20.6463 1.8375 21.2088 2.43375C22.3675 3.87375 22.8513 5.55001 22.6825 7.46251C22.5025 9.37501 21.8725 10.8713 20.7813 11.9288L12.2425 20.4675C12.0288 20.6813 11.7588 20.7825 11.4438 20.7825C11.1288 20.7825 10.87 20.6813 10.6563 20.4675C10.5524 20.365 10.4708 20.2422 10.4166 20.1066C10.3623 19.9711 10.3367 19.8259 10.3413 19.68C10.3413 19.365 10.4425 19.095 10.6563 18.8813L15.82 13.7175C16.1013 13.47 16.1013 13.2113 15.82 12.93C15.5388 12.6488 15.28 12.6488 15.0325 12.93L9.86877 18.0938C9.76465 18.1986 9.63991 18.2808 9.50242 18.335C9.36494 18.3892 9.21771 18.4143 9.07002 18.4088C8.75502 18.4088 8.49627 18.3075 8.28252 18.0938C8.17862 17.9913 8.09701 17.8684 8.0428 17.7329C7.9886 17.5974 7.96297 17.4521 7.96752 17.3063C7.96752 16.9913 8.06877 16.7213 8.28252 16.5075L13.4463 11.3438C13.75 11.0625 13.75 10.7813 13.4463 10.5C13.1875 10.2188 12.94 10.2188 12.6588 10.5L7.49502 15.72C7.38972 15.8233 7.26477 15.9044 7.12757 15.9585C6.99037 16.0126 6.84371 16.0386 6.69627 16.035C6.38127 16.035 6.11127 15.9338 5.87502 15.72C5.65002 15.5063 5.53752 15.2475 5.53752 14.9325C5.53752 14.6175 5.66127 14.3363 5.90877 14.0888L11.0838 8.91376C11.365 8.63251 11.365 8.37376 11.0838 8.12626C10.8025 7.87876 10.5325 7.87876 10.285 8.12626L5.06502 13.3125C4.81752 13.5375 4.55877 13.6613 4.27752 13.6613C3.96252 13.6613 3.69252 13.5488 3.49002 13.3125C3.27627 13.0875 3.16377 12.8175 3.16377 12.5025C3.16377 12.1875 3.27627 11.9288 3.49002 11.715C6.93252 8.25001 9.05877 6.1575 9.86877 5.38125L13.8738 9.34125C14.3125 9.7575 14.8188 9.97125 15.4375 9.97125C16.225 9.97125 16.8438 9.65625 17.305 9.02625C17.62 8.565 17.7325 8.05875 17.6425 7.49625C17.5525 6.93375 17.3163 6.46126 16.9338 6.06751L12.3438 1.43251V1.43251ZM14.6613 8.55376L9.86877 3.75L1.90377 11.715C0.958773 10.7588 0.418773 9.29625 0.295023 7.305C0.171273 5.325 0.711273 3.60376 1.90377 2.16376C3.24252 0.836255 4.84002 0.161255 6.69627 0.161255C8.56377 0.161255 10.15 0.836255 11.4438 2.16376L16.2475 6.9675C16.4613 7.18125 16.5625 7.44001 16.5625 7.75501C16.5625 8.07001 16.4613 8.34001 16.2475 8.55376C16.0338 8.75626 15.775 8.86876 15.4375 8.86876C15.1338 8.86876 14.875 8.75626 14.6613 8.55376V8.55376Z" fill="#FF0000"/>
</svg>
