<svg width="24" height="24" viewBox="0 0 24 24" fill="none" xmlns="http://www.w3.org/2000/svg">
<g clip-path="url(#clip0_205_1091)">
<path d="M12.75 1.14656V0.75C12.75 0.335812 12.4142 0 12 0C11.5858 0 11.25 0.335812 11.25 0.75V1.14656C5.19952 1.50225 0 6.17039 0 12.375C0 12.921 0.565453 13.2829 1.06031 13.058C4.41938 11.5313 6.60375 13.3233 6.93 13.6181C7.18495 13.9209 7.68703 13.9992 8.04422 13.6425C8.6362 13.101 9.81009 12.5456 11.25 12.4102V21.375C11.25 22.8224 12.4276 24 13.875 24C15.3224 24 16.5 22.8224 16.5 21.375C16.5 20.9608 16.1642 20.625 15.75 20.625C15.3358 20.625 15 20.9608 15 21.375C15 21.9953 14.4953 22.5 13.875 22.5C13.2547 22.5 12.75 21.9953 12.75 21.375V12.4102C14.1488 12.5418 15.3207 13.0714 15.9516 13.6387C16.0421 13.7225 16.1263 13.8025 16.2844 13.8483C16.5661 13.9358 16.8805 13.8409 17.0681 13.6205C17.3981 13.3219 19.582 11.5317 22.9397 13.058C23.4348 13.283 24 12.9207 24 12.375C24 6.17377 18.8047 1.50248 12.75 1.14656V1.14656Z" fill="#F06060"/>
</g>
<defs>
<clipPath id="clip0_205_1091">
<rect width="24" height="24" fill="white"/>
</clipPath>
</defs>
</svg>
