<svg width="45" height="45" viewBox="0 0 45 45" fill="none" xmlns="http://www.w3.org/2000/svg">
<path d="M5.625 7.5V16.875H9.375V9.375H16.875V5.625H7.5C7.00272 5.625 6.52581 5.82254 6.17417 6.17417C5.82254 6.52581 5.625 7.00272 5.625 7.5V7.5ZM39.375 16.875V7.5C39.375 7.00272 39.1775 6.52581 38.8258 6.17417C38.4742 5.82254 37.9973 5.625 37.5 5.625H28.125V9.375H35.625V16.875H39.375ZM35.625 35.625H28.125V39.375H37.5C37.9973 39.375 38.4742 39.1775 38.8258 38.8258C39.1775 38.4742 39.375 37.9973 39.375 37.5V28.125H35.625V35.625ZM16.875 39.375V35.625H9.375V28.125H5.625V37.5C5.625 37.9973 5.82254 38.4742 6.17417 38.8258C6.52581 39.1775 7.00272 39.375 7.5 39.375H16.875ZM3.75 20.625H41.25V24.375H3.75V20.625Z" fill="#FF0000"/>
</svg>
