<svg width="45" height="45" viewBox="0 0 45 45" fill="none" xmlns="http://www.w3.org/2000/svg">
<path d="M5.625 0V5.625H0V9.375H5.625V15H9.375V9.375H15V5.625H9.375V0H5.625ZM18.75 5.625V9.375H35.625V13.125H24.375C22.3125 13.125 20.625 14.8125 20.625 16.875V28.125C20.625 30.1875 22.3125 31.875 24.375 31.875H35.625V35.625H9.375V18.75H5.625V35.625C5.625 36.6196 6.02009 37.5734 6.72335 38.2766C7.42661 38.9799 8.38044 39.375 9.375 39.375H35.625C37.6875 39.375 39.375 37.6875 39.375 35.625V31.35C39.9418 31.0228 40.413 30.553 40.742 29.9872C41.0709 29.4214 41.246 28.7794 41.25 28.125V16.875C41.246 16.2206 41.0709 15.5786 40.742 15.0128C40.413 14.447 39.9418 13.9772 39.375 13.65V9.375C39.375 7.3125 37.6875 5.625 35.625 5.625H18.75ZM24.375 16.875H37.5V28.125H24.375V16.875ZM30 19.6875C29.2541 19.6875 28.5387 19.9838 28.0113 20.5113C27.4838 21.0387 27.1875 21.7541 27.1875 22.5C27.1875 23.2459 27.4838 23.9613 28.0113 24.4887C28.5387 25.0162 29.2541 25.3125 30 25.3125C30.7459 25.3125 31.4613 25.0162 31.9887 24.4887C32.5162 23.9613 32.8125 23.2459 32.8125 22.5C32.8125 21.7541 32.5162 21.0387 31.9887 20.5113C31.4613 19.9838 30.7459 19.6875 30 19.6875Z" fill="#FF0000"/>
</svg>
