<svg width="14" height="24" viewBox="0 0 14 24" fill="none" xmlns="http://www.w3.org/2000/svg">
<path d="M13.7625 8.2312C13.6969 8.09039 13.5557 8.00002 13.4001 8.00002H8.66013L13.3381 0.614016C13.4161 0.490828 13.4209 0.334828 13.3505 0.207234C13.2801 0.0792188 13.1457 0 13.0001 0H6.60011C6.44852 0 6.31009 0.0855937 6.24213 0.221203L0.24213 12.2212C0.180114 12.3448 0.186911 12.492 0.259708 12.61C0.332927 12.728 0.461317 12.8 0.600114 12.8H4.7133L0.231301 23.4448C0.154895 23.6268 0.222911 23.838 0.391286 23.9412C0.456067 23.9808 0.528067 24 0.599692 24C0.714489 24 0.827692 23.9507 0.906114 23.858L13.7061 8.65795C13.8065 8.5388 13.8281 8.37239 13.7625 8.2312Z" fill="#FED409"/>
</svg>
