<svg width="24" height="24" viewBox="0 0 24 24" fill="none" xmlns="http://www.w3.org/2000/svg">
<g clip-path="url(#clip0_205_1075)">
<path d="M23.2274 9.44408C23.1801 9.33464 23.0864 9.25203 22.9719 9.21877C22.8574 9.1855 22.7341 9.20505 22.6354 9.27208C21.3444 10.2325 19.8452 10.8752 18.2594 11.1481C16.1114 11.4961 14.1994 11.9121 12.5434 13.4801C12.1396 13.8678 11.7946 14.3125 11.5194 14.8001C11.1555 14.0883 10.6756 13.4422 10.0994 12.8881C8.64744 11.5401 6.96744 11.1801 5.08344 10.8881C3.70559 10.6586 2.40031 10.1108 1.27144 9.28808C1.17284 9.22105 1.04947 9.2015 0.934967 9.23477C0.820468 9.26803 0.726779 9.35064 0.679443 9.46008C-1.21256 13.8601 0.907443 19.9641 5.90744 21.5201C7.53376 21.9875 9.25498 22.0151 10.8954 21.6001C11.0783 21.5549 11.2049 21.3883 11.1994 21.2001C11.1994 18.6481 11.4394 17.0401 11.8674 15.9201L11.8914 15.8641C12.1487 15.1791 12.5592 14.5621 13.0914 14.0601C14.5754 12.6481 16.3634 12.2641 18.3794 11.9361C19.914 11.6777 21.3742 11.0895 22.6594 10.2121C24.5474 15.5561 21.4994 23.6961 12.7994 23.2001C14.1863 20.4585 16.2519 18.1175 18.7994 16.4001C18.9251 16.3221 18.9975 16.1812 18.9876 16.0336C18.9778 15.8861 18.8874 15.756 18.7525 15.6954C18.6176 15.6347 18.4603 15.6535 18.3434 15.7441C13.4394 19.1041 11.8994 23.2241 11.8354 23.3961C11.7928 23.5122 11.8063 23.6416 11.872 23.7465C11.9377 23.8513 12.0483 23.9198 12.1714 23.9321C13.8938 24.1145 15.6354 23.9402 17.2874 23.4201C22.9434 21.6201 25.3834 14.5681 23.2274 9.44408V9.44408ZM10.3994 20.0361C9.78744 19.0401 8.20344 16.9441 5.03144 14.8001C4.84808 14.6764 4.59915 14.7247 4.47544 14.9081C4.35173 15.0914 4.40008 15.3404 4.58344 15.4641C8.48744 18.1201 9.89544 20.7161 10.0274 20.9641C3.00344 22.1281 -0.516558 15.2001 1.23944 10.2041C2.35996 10.9491 3.62703 11.4456 4.95544 11.6601C6.77144 11.9481 8.26744 12.2681 9.55144 13.4641C10.2174 14.1096 10.7383 14.8896 11.0794 15.7521C10.6293 17.1355 10.3998 18.5812 10.3994 20.0361V20.0361Z" fill="#00D53B"/>
<path d="M11.7161 12.28C11.7912 12.3557 11.8934 12.3983 12.0001 12.3983C12.1067 12.3983 12.209 12.3557 12.2841 12.28L17.6361 6.868C20.1161 4.364 18.4001 0 14.8001 0C13.7433 0.00706173 12.734 0.439633 12.0001 1.2C11.2578 0.4446 10.2431 0.019101 9.18406 0.019101C8.125 0.019101 7.11035 0.4446 6.36806 1.2C4.81156 2.77655 4.81156 5.31145 6.36806 6.888L11.7161 12.28ZM6.93606 1.744C7.52936 1.14082 8.34 0.801106 9.18606 0.801106C10.0321 0.801106 10.8428 1.14082 11.4361 1.744L11.7161 2.024C11.7912 2.09973 11.8934 2.14232 12.0001 2.14232C12.1067 2.14232 12.209 2.09973 12.2841 2.024L12.5681 1.74C13.4887 0.843861 14.8561 0.58523 16.0404 1.08321C17.2247 1.5812 17.9964 2.73923 18.0001 4.024C18.0034 4.8774 17.6682 5.69731 17.0681 6.304L12.0001 11.432L6.93606 6.304C5.68757 5.04037 5.68757 3.00763 6.93606 1.744V1.744Z" fill="#00D53B"/>
<path d="M7.6 5.64005C7.75008 5.63895 7.88691 5.55392 7.95437 5.41985C8.02182 5.28578 8.00855 5.12523 7.92 5.00405C7.44217 4.35193 7.50648 3.44979 8.072 2.87205C8.17275 2.77059 8.21171 2.62309 8.17422 2.4851C8.13672 2.34712 8.02846 2.23962 7.89022 2.2031C7.75197 2.16658 7.60475 2.20659 7.504 2.30805C6.66254 3.16783 6.56772 4.51056 7.28 5.48005C7.35554 5.58078 7.4741 5.64005 7.6 5.64005Z" fill="#00D53B"/>
<path d="M9.20005 2.39999C9.30773 2.39988 9.41508 2.41196 9.52005 2.43599C9.74097 2.48238 9.95766 2.3409 10.0041 2.11999C10.0504 1.89907 9.90897 1.68238 9.68805 1.63599C9.5268 1.60931 9.36347 1.59726 9.20005 1.59999C8.97914 1.59999 8.80005 1.77907 8.80005 1.99999C8.80005 2.2209 8.97914 2.39999 9.20005 2.39999V2.39999Z" fill="#00D53B"/>
</g>
<defs>
<clipPath id="clip0_205_1075">
<rect width="24" height="24" fill="white"/>
</clipPath>
</defs>
</svg>
