<svg width="24" height="24" viewBox="0 0 24 24" fill="none" xmlns="http://www.w3.org/2000/svg">
<path d="M22.5 6C22.5 5.175 21.825 4.5 21 4.5H3C2.175 4.5 1.5 5.175 1.5 6V8.25H22.5V6Z" fill="#CBCBDD"/>
<path d="M1.5 18C1.5 18.825 2.175 19.5 3 19.5H21C21.825 19.5 22.5 18.825 22.5 18V10.5H1.5V18ZM8.15625 15.75H15.8438C16.2047 15.75 16.5 16.0453 16.5 16.4062C16.5 16.7672 16.2047 17.0625 15.8438 17.0625H8.15625C7.79531 17.0625 7.5 16.7672 7.5 16.4062C7.5 16.0453 7.79531 15.75 8.15625 15.75ZM4.78125 15.75H5.34375C5.70469 15.75 6 16.0453 6 16.4062C6 16.7672 5.70469 17.0625 5.34375 17.0625H4.78125C4.42031 17.0625 4.125 16.7672 4.125 16.4062C4.125 16.0453 4.42031 15.75 4.78125 15.75Z" fill="#CBCBDD"/>
</svg>
