<svg width="24" height="24" viewBox="0 0 24 24" fill="none" xmlns="http://www.w3.org/2000/svg">
<path d="M12.514 3.47698C12.153 3.19639 11.6477 3.19639 11.2866 3.47698L4.13632 9.03458C3.89258 9.22403 3.75 9.51543 3.75 9.82413V20C3.75 20.5523 4.19772 21 4.75 21H8.35744C8.90972 21 9.35744 20.5523 9.35744 20V14.9581C9.35744 14.4058 9.80515 13.9581 10.3574 13.9581H13.4432C13.9955 13.9581 14.4432 14.4058 14.4432 14.9581V20C14.4432 20.5523 14.891 21 15.4432 21H19.0507C19.603 21 20.0507 20.5523 20.0507 20V9.82413C20.0507 9.51543 19.9081 9.22403 19.6643 9.03458L12.514 3.47698Z" fill="#CBCBDD"/>
</svg>
